PathFileType	4	(X/Y/Z)	20_1_41_p0_0-286.trc
DataRate	CameraRate	NumFrames	NumMarkers	Units	OrigDataRate	OrigDataStartFrame	OrigNumFrames
59.0	59.0	6	27	m	59.0	35	287
Frame#	Time	RHip			RKnee			RAnkle			RBigToe			RSmallToe			RHeel			LHip			LKnee			LAnkle			LBigToe			LSmallToe			LHeel			Neck			Head			Nose			RShoulder			RElbow			RWrist			RThumb			RIndex			RPinky			LShoulder			LElbow			LWrist			LThumb			LIndex			LPinky			
		X1	Y1	Z1	X2	Y2	Z2	X3	Y3	Z3	X4	Y4	Z4	X5	Y5	Z5	X6	Y6	Z6	X7	Y7	Z7	X8	Y8	Z8	X9	Y9	Z9	X10	Y10	Z10	X11	Y11	Z11	X12	Y12	Z12	X13	Y13	Z13	X14	Y14	Z14	X15	Y15	Z15	X16	Y16	Z16	X17	Y17	Z17	X18	Y18	Z18	X19	Y19	Z19	X20	Y20	Z20	X21	Y21	Z21	X22	Y22	Z22	X23	Y23	Z23	X24	Y24	Z24	X25	Y25	Z25	X26	Y26	Z26	X27	Y27	Z27	
35	0.5932203389830508	0.3457200101199368	0.4500384204523449	0.9311024319545685	0.3268392590481316	0.6183565373732636	1.3422117293348068	0.3246949483401314	0.7610209581636684	1.7566900795906368	0.32027682330730717	0.6455534331304729	1.8119887849274967	0.36221787072817824	0.6582536127824339	1.802248945610394	0.31260823388639175	0.8568920196272066	1.8220943581263673	0.15579103633545294	0.513133709346552	0.9277068229136265	0.13765650327750176	0.6757647709507201	1.3491596603649894	0.1458692830054703	0.8113506078678104	1.7801583763166982	0.1537030166741621	0.6347392655455804	1.8125167232484674	0.1042363535948574	0.6691959526483316	1.802900344835819	0.1647927038810916	0.8367645716537928	1.822171961110331	0.26885274253318947	0.3877629102265975	0.34925878871407195	0.268804675035503	0.3210929610385746	0.11435530655845684	0.24362954452107116	0.24715733956154112	0.26263655037589856	0.40941663319746635	0.38734041441374545	0.44613019196062453	0.4434488092747735	0.3558715604825457	0.707150813305457	0.25339863887733716	0.2063342553466535	0.7305150607077044	0.15564017970441382	0.08547685240404945	0.7003322080731531	0.15221354741213852	0.10560424428869551	0.7322236793847134	0.17528958959714816	0.1963016772591403	0.7946096672360953	0.10424007854919362	0.4431276455983539	0.4490388207722672	0.06445532959347225	0.45600691883914457	0.681422369339558	0.14571868376793112	0.26338502799502445	0.7763543504581526	0.1622154780140077	0.12513489747524117	0.7487926351171224	0.18734227288923042	0.12472615363418246	0.7751928992103315	0.18978484378473012	0.17075735181468843	0.8408961291075099
36	0.6101694915254238	0.34577421278973247	0.4491698967389251	0.9347109141277101	0.32681310304011707	0.6180675992776822	1.3421585482756802	0.32908674698133866	0.7761350809270402	1.7618313884727774	0.31980951440069433	0.6443975036593539	1.8111913665803299	0.36654586500702097	0.6718328354655586	1.8071279208084243	0.31799508574880714	0.8735820264267404	1.8308505919013551	0.15653775635784015	0.5164523048934635	0.9326187969012443	0.13763673966495954	0.67596347624929	1.3492063459275359	0.14581417754743825	0.8118596688448619	1.7802568109036307	0.1526691719487318	0.6314905329736373	1.8073522715874266	0.09948737142270479	0.6847076083963621	1.8080587134765842	0.16439240476098907	0.8373662861820323	1.8220086130704285	0.2687856087952702	0.38758932111470334	0.34910762589401423	0.26469479656716305	0.3097575637308574	0.11608214203729159	0.2436925328612191	0.2476778720442	0.2624834716531052	0.40759151190967957	0.37460464040066893	0.44658087256701323	0.4381493980736655	0.35577994646184335	0.710696525343502	0.24597671155116782	0.20754643380337398	0.7272566980232243	0.14911990740018952	0.10347691566295297	0.6786215429116411	0.1371780788719602	0.15269083942583067	0.722119341478753	0.14140202627576462	0.17648827190334035	0.7735969049969288	0.10767911396846812	0.45465925245246336	0.4483445062514981	0.06798247214832233	0.4712424398870559	0.6892179735870575	0.14602593475234216	0.2629386058591048	0.7799853094410673	0.15951034919481952	0.120603496090306	0.7525194055149605	0.17546951017948953	0.11232834143568342	0.7747806313342191	0.17825003098374362	0.17817834416255152	0.8481995714468439
37	0.6271186440677966	0.34596661108758775	0.44911007688486587	0.9340415969247494	0.325184779089791	0.6162148430012199	1.341950003166238	0.3290508258707739	0.7763311070343094	1.7620245048732437	0.31901368958222964	0.6465371584819425	1.8158799974365047	0.366736131933642	0.6722405542430373	1.8074344312235007	0.3169442840563202	0.8707923308191512	1.8262213958780917	0.15546493581526846	0.5151967442778552	0.9317253536522082	0.1368425847747806	0.6726610741344212	1.344202650141927	0.14586401651984446	0.8118192045684516	1.7803125296562765	0.15364720165469484	0.6350937929738522	1.8126042823898436	0.09960699274285115	0.6853831546159231	1.8087474666753756	0.16453335332212576	0.8372658909716906	1.8221397081519979	0.26876031667458383	0.3876830853552575	0.34895464599042714	0.26464071800767397	0.30954242845131574	0.11610532555724226	0.24048539495670623	0.25898720717434004	0.26105512397539726	0.41179813069018084	0.37419266329981454	0.4496070006269355	0.43763198133042325	0.35316787200643074	0.7071187366909645	0.24232560441322745	0.1677587836123863	0.7090884002406683	0.1366462574476053	0.13262645953982957	0.6627393899117192	0.1344928894689082	0.1362430882485296	0.69746307135851	0.14301096368545294	0.14720615107327872	0.7443323841675415	0.10769904037703609	0.4546595577851247	0.4485477029117573	0.06892509772173379	0.4641677310968017	0.6958719395661934	0.13559974434200017	0.2547871943009708	0.7832901528373186	0.140106384152762	0.15625188598406084	0.7585378747677073	0.14489402521314476	0.14369797991869734	0.789139392762528	0.1623050296500239	0.19275157116573033	0.8562081471698791
38	0.6440677966101694	0.3351961244059861	0.4767523537635871	0.9367711098981217	0.3248753913178812	0.6172516494261067	1.3377979167267888	0.3247556453456634	0.7609632583260697	1.7566479222744085	0.31903082594454546	0.6471001730574647	1.8162109371909543	0.366823386785998	0.6724694882551839	1.807594386113086	0.3122180710481637	0.854874989002324	1.8204015274010585	0.15976909933923417	0.5271734732351179	0.9293921815889487	0.1359905154458645	0.6740217505378256	1.3482055029962894	0.14585718753159793	0.8118528844964934	1.780267277362005	0.15276268579279845	0.6313963898469706	1.8072972608814846	0.10402918446641601	0.6689206327606944	1.8021739072432066	0.16875056964275106	0.8402086342177798	1.8183672294866402	0.26880110262152906	0.3878122547096167	0.3488422882333137	0.2647744769627052	0.3091869951819093	0.11614912555502395	0.2404637944716552	0.2591436089627916	0.26097285125287634	0.4075917991526886	0.3750604587808592	0.4496240200287639	0.43122666341847343	0.3280448069126173	0.7027284066824679	0.23787494654134864	0.16708181683824488	0.7088460858498459	0.13754785585959312	0.12970369652765878	0.6516555874999507	0.1325255814482569	0.11004664090114	0.6776749153624596	0.1351711448281611	0.14906397272197958	0.7338878623199274	0.11111781398175415	0.46778922450284277	0.4476290615985075	0.07611070343181837	0.48865360913704664	0.6968391512943702	0.12991915486295122	0.3299399352567726	0.7979391374738037	0.13194491014080528	0.15813466111656574	0.7743590144484693	0.13685525478177055	0.1596443938656103	0.8199122939526706	0.14257906116206298	0.20374317961545355	0.8580090084666756
39	0.6610169491525424	0.33790928653276736	0.46266934931235904	0.9363306872840442	0.32500531638134195	0.6174301552656766	1.3380163795613835	0.3323033443859618	0.7593447001929896	1.7559896815114515	0.31972558710444676	0.644310198792193	1.8110723435293536	0.3665933397395517	0.6722751638833657	1.8072908961139154	0.3166002069191776	0.8708072616297267	1.8258320585763907	0.15574215058526647	0.5452142499144388	0.9392412092147537	0.13601262617889226	0.6743687023780108	1.3484505951657437	0.1458681992917041	0.811739265225561	1.7802298648793677	0.15273620611461092	0.6314444735992909	1.807329033953833	0.10409827379466001	0.6688917976660634	1.8022217205904563	0.16404888860283512	0.8388434486253447	1.8178379639324118	0.26861087980498305	0.38805704334902635	0.3455337094431552	0.2648412938224459	0.31955425035346324	0.11414896162849036	0.24384469792587754	0.24785670221957104	0.2621836049150364	0.4076276204276756	0.3745893334585402	0.44658664693532035	0.4268131839527576	0.327926703219959	0.7061434416483989	0.23025749508693302	0.1547438796727803	0.6982440540557445	0.15161955910562092	0.08559703813809848	0.6400060780828299	0.13099787379546055	0.09864938785123699	0.6600136512935919	0.13489991297196044	0.14151374514007753	0.7158074671075898	0.1111805988749144	0.4674997297768956	0.4476719421449035	0.07097726074196212	0.5011835018655868	0.6865857252928875	0.11378995884269852	0.3484912180228447	0.8173769207438529	0.13376781949736377	0.17491219964947513	0.793446892123615	0.1341534954800036	0.18011284191082377	0.8475079613597404	0.14055673288939727	0.2227794061388764	0.877646939752262
40	0.6779661016949152	0.33348874444882975	0.46292952142271826	0.932464827969405	0.3259340013173366	0.6205210636109307	1.342793060310358	0.33227201644457544	0.7591416442293266	1.7558798062138938	0.32304243336291666	0.6605340723650561	1.8207738251977383	0.367878017651594	0.6753823336424257	1.8127292271294795	0.3132486104253074	0.858582615637645	1.82569194961774	0.15837563351740291	0.5291261649993534	0.9372050255923805	0.1376284024893546	0.6758195278675544	1.3493599749189382	0.1458531026534274	0.8115601464849658	1.7801928364220034	0.15345624610648398	0.6343986053521795	1.812044141828406	0.10374384323997592	0.6685319963989602	1.8015642200763475	0.1687813260849877	0.8393313278637092	1.8179551013958133	0.26856123989162	0.388069907839594	0.3455354917914081	0.26879257551018615	0.3203861505451298	0.11713208212446614	0.2437564964430434	0.2474305943193711	0.26226244022615586	0.40763205500265415	0.375570382264957	0.4466545918370922	0.41447690416440053	0.32455988951551173	0.7027777410247471	0.23596061692505785	0.15096760035015955	0.6874991862485663	0.1508883905022213	0.07667759599838257	0.6342967998426937	0.12856273704080867	0.10855866788492267	0.649031123318212	0.1444850619868593	0.10089236042263036	0.6896710686143775	0.10823638566632897	0.45425972806986525	0.44524043972336336	0.0711820534105287	0.49273848380962804	0.6711844109596176	0.10129546231601366	0.3639519354722953	0.8298978876714819	0.1251191847247941	0.17898499457549708	0.826910958036209	0.12974610086532432	0.1810275081307217	0.8582456559527553	0.13419020877259277	0.23138353731664488	0.9066969633651222
